<svg width="160" height="50" viewBox="0 0 160 50" fill="none" xmlns="http://www.w3.org/2000/svg">
<path d="M40.48 23.024L41.056 22.272C41.376 22.608 42.128 23.264 43.216 23.264C44.192 23.264 45.152 22.768 45.152 21.696C45.152 20.784 44.48 20.272 43.2 20.272H42.224V19.408H43.072C44.16 19.408 44.864 18.976 44.864 18.048C44.864 17.136 44.192 16.688 43.2 16.688C42.416 16.688 41.776 16.976 41.232 17.408L40.752 16.64C41.312 16.176 42.192 15.76 43.36 15.76C44.848 15.76 45.984 16.48 45.984 17.92C45.984 18.928 45.44 19.488 44.752 19.76V19.792C45.632 20.016 46.272 20.656 46.272 21.728C46.272 23.36 44.832 24.192 43.28 24.192C42.016 24.192 41.072 23.6 40.48 23.024ZM47.6233 21.84C47.6233 19.2 50.9833 19.04 52.5193 19.04H52.9993V18.816C52.9993 17.264 52.1513 16.736 51.0153 16.736C50.1993 16.736 49.3832 17.024 48.7273 17.504L48.2313 16.672C48.8713 16.128 50.0073 15.76 51.0793 15.76C53.0153 15.76 54.0873 16.832 54.0873 18.848V24H53.0473V23.056C53.0473 22.656 53.0953 22.384 53.0953 22.384H53.0633C52.6473 23.36 51.6393 24.192 50.3433 24.192C48.9833 24.192 47.6233 23.392 47.6233 21.84ZM48.7273 21.744C48.7273 22.496 49.3353 23.28 50.5353 23.28C52.0873 23.28 52.9993 21.68 52.9993 20.272V19.904H52.5353C51.2873 19.904 48.7273 19.952 48.7273 21.744ZM56.0649 19.936C56.0649 17.488 57.8889 15.888 60.4009 15.776V12.8H61.4569V15.776C63.9689 15.888 65.7929 17.488 65.7929 19.936C65.7929 22.432 63.9689 24.064 61.4569 24.176V27.2H60.4009V24.176C57.8889 24.064 56.0649 22.432 56.0649 19.936ZM61.4569 23.232C63.3609 23.12 64.6889 21.888 64.6889 19.936C64.6889 18.016 63.3609 16.832 61.4569 16.736V23.232ZM57.1689 19.936C57.1689 21.888 58.4969 23.12 60.4009 23.232V16.736C58.4969 16.832 57.1689 18.016 57.1689 19.936ZM67.8585 24V15.952H68.9145V21.232C68.9145 21.728 68.8825 22.4 68.8665 22.432H68.8985C68.9305 22.368 69.4105 21.68 69.7305 21.232L73.6825 15.952H74.7225V24H73.6505V18.704C73.6505 18.24 73.6985 17.6 73.6985 17.536H73.6665C73.6505 17.616 73.1545 18.256 72.8505 18.704L68.8985 24H67.8585ZM77.3116 24V15.952H78.3996V19.36H79.6796L82.0956 15.952H83.3756L80.5756 19.776V19.808L83.6956 24H82.3676L79.6956 20.32H78.3996V24H77.3116ZM84.3458 19.984C84.3458 17.504 86.2018 15.76 88.5698 15.76C89.6258 15.76 90.7938 16.128 91.5138 16.912L90.9538 17.728C90.3938 17.152 89.4978 16.736 88.6018 16.736C86.8418 16.736 85.4658 18.064 85.4658 19.984C85.4658 21.872 86.8418 23.2 88.6338 23.2C89.5618 23.2 90.5698 22.8 91.2098 22.096L91.7058 22.912C91.0018 23.696 89.8018 24.192 88.5698 24.192C86.1858 24.192 84.3458 22.48 84.3458 19.984ZM93.5616 24V15.952H94.6176V21.232C94.6176 21.728 94.5856 22.4 94.5696 22.432H94.6016C94.6336 22.368 95.1136 21.68 95.4336 21.232L99.3856 15.952H100.426V24H99.3536V18.704C99.3536 18.24 99.4016 17.6 99.4016 17.536H99.3696C99.3536 17.616 98.8576 18.256 98.5536 18.704L94.6016 24H93.5616ZM103.015 27.2V15.952H104.055V16.8C104.055 17.152 104.007 17.424 104.007 17.424H104.039C104.535 16.384 105.591 15.76 106.839 15.76C109.015 15.76 110.343 17.488 110.343 19.968C110.343 22.528 108.839 24.192 106.743 24.192C105.607 24.192 104.615 23.6 104.087 22.592H104.055C104.055 22.592 104.103 22.88 104.103 23.296V27.2H103.015ZM104.071 20C104.071 21.616 104.983 23.216 106.631 23.216C108.055 23.216 109.239 22.032 109.239 19.984C109.239 18.016 108.183 16.752 106.679 16.752C105.335 16.752 104.071 17.712 104.071 20ZM111.893 19.936C111.893 17.552 113.781 15.76 116.133 15.76C118.485 15.76 120.389 17.552 120.389 19.936C120.389 22.368 118.485 24.192 116.133 24.192C113.781 24.192 111.893 22.368 111.893 19.936ZM113.013 19.936C113.013 21.824 114.405 23.2 116.133 23.2C117.861 23.2 119.269 21.824 119.269 19.936C119.269 18.112 117.861 16.736 116.133 16.736C114.405 16.736 113.013 18.112 113.013 19.936ZM122.421 24V15.952H125.333C126.965 15.952 127.989 16.672 127.989 18C127.989 18.832 127.557 19.488 126.773 19.776V19.808C127.813 20.016 128.405 20.8 128.405 21.744C128.405 23.136 127.301 24 125.493 24H122.421ZM123.509 19.44H125.221C126.309 19.44 126.869 18.928 126.869 18.064C126.869 17.2 126.293 16.784 125.157 16.784H123.509V19.44ZM123.509 23.152H125.349C126.677 23.152 127.285 22.592 127.285 21.728C127.285 20.784 126.581 20.272 125.333 20.272H123.509V23.152ZM129.764 21.84C129.764 19.2 133.124 19.04 134.66 19.04H135.14V18.816C135.14 17.264 134.292 16.736 133.156 16.736C132.34 16.736 131.524 17.024 130.868 17.504L130.372 16.672C131.012 16.128 132.148 15.76 133.22 15.76C135.156 15.76 136.228 16.832 136.228 18.848V24H135.188V23.056C135.188 22.656 135.236 22.384 135.236 22.384H135.204C134.788 23.36 133.78 24.192 132.484 24.192C131.124 24.192 129.764 23.392 129.764 21.84ZM130.868 21.744C130.868 22.496 131.476 23.28 132.676 23.28C134.228 23.28 135.14 21.68 135.14 20.272V19.904H134.676C133.428 19.904 130.868 19.952 130.868 21.744ZM140.593 24V16.912H137.665V15.952H144.625V16.912H141.681V24H140.593ZM146.296 24V15.952H147.384V19.024H149.128C150.568 19.024 151.944 19.632 151.944 21.536C151.944 22.992 151.032 24 149.096 24H146.296ZM147.384 23.136H149C150.296 23.136 150.824 22.48 150.824 21.52C150.824 20.544 150.28 19.888 149.016 19.888H147.384V23.136Z" fill="#8E87A3"/>
<rect x="5.5" y="7.5" width="24" height="24" rx="0.5" stroke="#8E87A3"/>
</svg>
