<svg width="140" height="50" viewBox="0 0 140 50" fill="none" xmlns="http://www.w3.org/2000/svg">
<path d="M43.1048 31.51L45.0848 28.54C46.2248 29.71 48.0548 30.7 49.9448 30.7C52.1348 30.7 53.7548 29.35 53.7548 27.52C53.7548 25.27 51.7148 24.22 49.1948 24.22H47.7248L46.8848 22.24L50.7848 17.62C51.5948 16.63 52.3148 16 52.3148 16V15.94C52.3148 15.94 51.6548 16.03 50.4248 16.03H44.0648V12.7H57.0548V15.13L51.8648 21.16C54.8048 21.58 57.6548 23.68 57.6548 27.37C57.6548 31 54.9248 34.36 50.1548 34.36C47.6348 34.36 44.9648 33.4 43.1048 31.51ZM68.5821 34.36C62.7621 34.36 60.8421 29.44 60.8421 23.32C60.8421 17.2 62.7621 12.34 68.5821 12.34C74.4021 12.34 76.2921 17.2 76.2921 23.32C76.2921 29.44 74.4021 34.36 68.5821 34.36ZM68.5821 30.82C71.4921 30.82 72.3321 27.52 72.3321 23.32C72.3321 19.18 71.4921 15.91 68.5821 15.91C65.6721 15.91 64.8321 19.18 64.8321 23.32C64.8321 27.52 65.6721 30.82 68.5821 30.82Z" fill="#2C1D5D"/>
<path d="M84.2 34V25.904H89.272V27.232H85.752V34H84.2ZM90.4574 29.344C90.4574 26.448 91.2894 24.688 94.1054 23.504L97.0014 22.256L97.5134 23.536L94.4094 24.832C92.7934 25.568 92.0254 26.512 91.9134 28.064H91.9454C92.6654 26.976 93.7374 26.624 94.8094 26.624C96.8414 26.624 98.2494 28.064 98.2494 30.352C98.2494 32.592 96.7134 34.192 94.4254 34.192C91.6894 34.192 90.4574 32.144 90.4574 29.344ZM92.0734 30.352C92.0734 31.952 93.1134 32.88 94.3614 32.88C95.6414 32.88 96.6814 31.952 96.6814 30.384C96.6814 28.8 95.6414 27.856 94.4254 27.856C93.0494 27.856 92.0734 28.928 92.0734 30.352Z" fill="#2C1D5D"/>
</svg>
