<svg width="140" height="50" viewBox="0 0 140 50" fill="none" xmlns="http://www.w3.org/2000/svg">
<path d="M25.5348 31.48L27.5448 28.57C28.5048 29.62 30.1248 30.7 32.0748 30.7C34.1448 30.7 36.0648 29.32 36.0648 27.07C36.0648 24.85 34.2348 23.38 31.8048 23.38C30.6648 23.38 29.4648 23.71 28.5048 24.28L26.3448 23.5L27.3348 12.7H38.5548V16.03H30.6948L30.3648 19.54C30.3048 20.11 30.2148 20.53 30.2148 20.53H30.2748C30.6648 20.32 31.7748 20.05 32.5548 20.05C37.2648 20.05 40.0548 23.2 40.0548 27.04C40.0548 31.24 36.7848 34.36 32.3748 34.36C29.8248 34.36 27.2748 33.37 25.5348 31.48ZM50.7442 34.36C44.9242 34.36 43.0042 29.44 43.0042 23.32C43.0042 17.2 44.9242 12.34 50.7442 12.34C56.5642 12.34 58.4542 17.2 58.4542 23.32C58.4542 29.44 56.5642 34.36 50.7442 34.36ZM50.7442 30.82C53.6542 30.82 54.4942 27.52 54.4942 23.32C54.4942 19.18 53.6542 15.91 50.7442 15.91C47.8342 15.91 46.9942 19.18 46.9942 23.32C46.9942 27.52 47.8342 30.82 50.7442 30.82ZM69.5821 34.36C63.7621 34.36 61.8421 29.44 61.8421 23.32C61.8421 17.2 63.7621 12.34 69.5821 12.34C75.4021 12.34 77.2921 17.2 77.2921 23.32C77.2921 29.44 75.4021 34.36 69.5821 34.36ZM69.5821 30.82C72.4921 30.82 73.3321 27.52 73.3321 23.32C73.3321 19.18 72.4921 15.91 69.5821 15.91C66.6721 15.91 65.8321 19.18 65.8321 23.32C65.8321 27.52 66.6721 30.82 69.5821 30.82Z" fill="#2C1D5D"/>
<path d="M84.864 34L85.568 25.904H87.296L89.36 30.48C89.584 30.96 89.808 31.568 89.808 31.568H89.84C89.84 31.568 90.08 30.976 90.288 30.48L92.4 25.904H94.096L94.8 34H93.296L92.944 29.184C92.928 28.704 92.96 27.792 92.96 27.792H92.928C92.928 27.792 92.72 28.352 92.416 28.976L90.496 33.024H89.168L87.248 28.992C86.992 28.4 86.736 27.792 86.736 27.792H86.704C86.704 27.792 86.752 28.704 86.72 29.184L86.368 34H84.864ZM96.8875 34V25.904H98.3755V30.736C98.3755 31.168 98.3435 31.744 98.3275 31.824H98.3595C98.4235 31.68 98.8075 31.12 99.0795 30.736L102.568 25.904H104.072V34H102.568V29.168C102.568 28.784 102.616 28.224 102.616 28.096H102.584C102.536 28.24 102.136 28.784 101.88 29.168L98.3755 34H96.8875ZM106.45 34V25.904H108.002V29.2H112.098V25.904H113.65V34H112.098V30.528H108.002V34H106.45Z" fill="#2C1D5D"/>
</svg>
