<svg width="140" height="50" viewBox="0 0 140 50" fill="none" xmlns="http://www.w3.org/2000/svg">
<path d="M11.8538 34V30.67H16.5038V18.85C16.5038 18.13 16.5338 17.41 16.5338 17.41H16.4738C16.4738 17.41 16.2038 17.92 15.5138 18.61L13.8038 20.23L11.5238 17.83L16.8638 12.7H20.2538V30.67H24.8738V34H11.8538ZM27.4119 34C27.2919 33.31 27.2319 32.71 27.2319 32.11C27.2319 24.43 37.1919 23.2 37.1919 18.97C37.1919 17.11 35.7519 16 33.9519 16C32.3319 16 30.8919 17.14 30.1119 18.52L27.2319 16.6C28.4619 14.32 30.8619 12.34 34.2819 12.34C38.0019 12.34 41.2119 14.62 41.2119 18.64C41.2119 25.48 31.6719 26.65 31.4919 30.67H41.5419V34H27.4119ZM52.5821 34.36C46.7621 34.36 44.8421 29.44 44.8421 23.32C44.8421 17.2 46.7621 12.34 52.5821 12.34C58.4021 12.34 60.2921 17.2 60.2921 23.32C60.2921 29.44 58.4021 34.36 52.5821 34.36ZM52.5821 30.82C55.4921 30.82 56.3321 27.52 56.3321 23.32C56.3321 19.18 55.4921 15.91 52.5821 15.91C49.6721 15.91 48.8321 19.18 48.8321 23.32C48.8321 27.52 49.6721 30.82 52.5821 30.82Z" fill="#2C1D5D"/>
<path d="M68.2 37.2V25.904H69.64V26.624C69.64 26.96 69.592 27.232 69.592 27.232H69.624C70.136 26.256 71.16 25.712 72.344 25.712C74.536 25.712 75.896 27.44 75.896 29.952C75.896 32.528 74.36 34.192 72.232 34.192C71.208 34.192 70.28 33.68 69.72 32.816H69.688C69.688 32.816 69.752 33.104 69.752 33.52V37.2H68.2ZM69.704 29.984C69.704 31.424 70.504 32.848 71.992 32.848C73.272 32.848 74.328 31.808 74.328 29.968C74.328 28.208 73.384 27.072 72.04 27.072C70.824 27.072 69.704 27.936 69.704 29.984ZM77.175 35.68C77.175 35.68 77.623 36.032 78.103 36.032C78.743 36.032 79.271 35.568 79.575 34.832L79.975 33.904L76.583 25.904H78.327L80.359 31.2C80.519 31.6 80.663 32.176 80.663 32.176H80.695C80.695 32.176 80.823 31.632 80.967 31.216L82.935 25.904H84.615L80.807 35.456C80.327 36.72 79.319 37.36 78.183 37.36C77.287 37.36 76.631 36.864 76.631 36.864L77.175 35.68ZM85.6761 29.344C85.6761 26.448 86.5081 24.688 89.3241 23.504L92.2201 22.256L92.7321 23.536L89.6281 24.832C88.0121 25.568 87.2441 26.512 87.1321 28.064H87.1641C87.8841 26.976 88.9561 26.624 90.0281 26.624C92.0601 26.624 93.4681 28.064 93.4681 30.352C93.4681 32.592 91.9321 34.192 89.6441 34.192C86.9081 34.192 85.6761 32.144 85.6761 29.344ZM87.2921 30.352C87.2921 31.952 88.3321 32.88 89.5801 32.88C90.8601 32.88 91.9001 31.952 91.9001 30.384C91.9001 28.8 90.8601 27.856 89.6441 27.856C88.2681 27.856 87.2921 28.928 87.2921 30.352ZM94.8111 34.672L98.8751 22.096H100.251L96.1871 34.672H94.8111ZM101.364 34L102.068 25.904H103.796L105.86 30.48C106.084 30.96 106.308 31.568 106.308 31.568H106.34C106.34 31.568 106.58 30.976 106.788 30.48L108.9 25.904H110.596L111.3 34H109.796L109.444 29.184C109.428 28.704 109.46 27.792 109.46 27.792H109.428C109.428 27.792 109.22 28.352 108.916 28.976L106.996 33.024H105.668L103.748 28.992C103.492 28.4 103.236 27.792 103.236 27.792H103.204C103.204 27.792 103.252 28.704 103.22 29.184L102.868 34H101.364ZM112.86 29.952C112.86 27.376 114.62 25.712 116.924 25.712C119.212 25.712 120.428 27.424 120.428 29.504C120.428 29.712 120.396 29.936 120.364 30.16H114.476C114.556 31.904 115.804 32.848 117.26 32.848C118.124 32.848 119.004 32.48 119.644 31.904L120.3 33.04C119.516 33.76 118.284 34.192 117.164 34.192C114.62 34.192 112.86 32.352 112.86 29.952ZM114.524 29.04H118.86C118.812 27.648 117.948 26.912 116.891 26.912C115.692 26.912 114.748 27.696 114.524 29.04ZM121.766 29.952C121.766 27.552 123.558 25.712 126.102 25.712C127.174 25.712 128.374 26.08 129.142 26.896L128.406 27.984C127.862 27.44 127.014 27.056 126.166 27.056C124.534 27.056 123.35 28.288 123.35 29.936C123.35 31.584 124.534 32.848 126.214 32.848C127.11 32.848 128.086 32.416 128.71 31.76L129.334 32.896C128.598 33.68 127.366 34.192 126.102 34.192C123.542 34.192 121.766 32.384 121.766 29.952Z" fill="#2C1D5D"/>
</svg>
